<?xml version="1.0" encoding="UTF-8" standalone="no" ?>
<!DOCTYPE svg PUBLIC "-//W3C//DTD SVG 1.1//EN" "http://www.w3.org/Graphics/SVG/1.1/DTD/svg11.dtd">
<svg xmlns="http://www.w3.org/2000/svg" xmlns:xlink="http://www.w3.org/1999/xlink" version="1.1" width="526" height="526" viewBox="0 0 526 526" xml:space="preserve">
<desc>Created with Fabric.js 4.6.0</desc>
<defs>
</defs>
<g transform="matrix(1 0 0 1 261.88 258.88)" id="guEt5KQWfmGIUEugMR34O"  >
<path style="stroke: rgb(0,0,0); stroke-width: 6; stroke-dasharray: none; stroke-linecap: butt; stroke-dashoffset: 0; stroke-linejoin: miter; stroke-miterlimit: 4; fill: none; fill-rule: nonzero; opacity: 1;" vector-effect="non-scaling-stroke"  transform=" translate(-335.24, -317.28)" d="M 591.6596 502.86077 L 524.8110399999999 572.70254 L 150.65868 572.70254 L 82.812389 501.86303 L 82.812389 424.53821 L 90.758488 424.42244999999997 L 90.758488 406.08003 L 80.816909 406.08003 L 80.816909 376.14784 L 91.792045 376.14784 L 91.792045 359.18626 L 80.816909 359.18626 L 80.816909 331.24955 L 90.79430599999999 331.24955 L 90.79430599999999 311.29476 L 80.567474 311.29476 L 80.442757 283.35805 L 90.794306 283.35805 L 90.794306 264.401 L 79.320299 264.401 L 79.320299 235.46655 L 90.794306 235.46655 L 90.794306 216.5095 L 77.823691 216.5095 L 76.825951 135.69259 L 158.6406 61.859856 L 527.80426 61.859856 L 591.6596 127.71067 L 591.6596 215.51175999999998 L 578.6889799999999 215.51175999999998 L 578.6889799999999 234.46881 L 591.6596 234.46881 L 591.6596 264.89986999999996 L 579.17743 265.13408 L 579.0589799999999 281.36257 L 592.6573299999999 281.36257 L 592.6573299999999 310.29702 L 578.6889799999999 310.29702 L 578.6889799999999 328.25633999999997 L 593.6550699999999 328.25633999999997 L 593.6550699999999 358.18852 L 578.6889799999999 358.18852 L 578.6889799999999 374.15236 L 592.6573299999999 374.15236 L 592.6573299999999 404.08455 L 578.6889799999999 404.08455 L 578.6889799999999 423.04159999999996 L 590.6618599999999 423.04159999999996 z" stroke-linecap="round" />
</g>
<g transform="matrix(1 0 0 1 261.88 214.98)" id="6jmX7KBWXHW1qz2bZSiaU"  >
<path style="stroke: rgb(0,0,0); stroke-width: 3; stroke-dasharray: none; stroke-linecap: butt; stroke-dashoffset: 0; stroke-linejoin: miter; stroke-miterlimit: 4; fill: none; fill-rule: nonzero; opacity: 1;" vector-effect="non-scaling-stroke"  transform=" translate(-335.24, -273.38)" d="M 562.72515 449.98057 L 562.72515 149.66094 L 506.85173 92.789785 L 162.63156 92.789785 L 107.75588 150.65868 L 107.75588 453.97153000000003" stroke-linecap="round" />
</g>
<g transform="matrix(1 0 0 1 261.38 448.95)" id="x5Tm0-9omJxLuZRAVtkrT"  >
<path style="stroke: rgb(0,0,0); stroke-width: 3; stroke-dasharray: none; stroke-linecap: butt; stroke-dashoffset: 0; stroke-linejoin: miter; stroke-miterlimit: 4; fill: rgb(0,0,0); fill-rule: nonzero; opacity: 1;" vector-effect="non-scaling-stroke"  transform=" translate(-334.74, -507.35)" d="M 166.49999 490.68113 L 166.85275 523.48727 L 185.19597 533.89352 L 203.89193999999998 534.0699 L 222.05879 522.95814 L 240.40201 534.24628 L 260.68537 533.89352 L 279.02858999999995 522.42901 L 295.78441999999995 533.18801 L 315.00951999999995 533.36439 L 334.2346299999999 522.6053899999999 L 353.2833599999999 532.3061299999999 L 372.8612199999999 532.12975 L 391.20443999999986 522.25263 L 408.1366399999999 533.0116399999999 L 429.1255199999999 533.18801 L 447.6451099999999 521.7235 L 465.8119599999999 532.3061299999999 L 485.7425699999999 531.95337 L 504.08578999999986 521.8998799999999 L 503.73303999999985 489.4464899999999 L 484.86067999999983 479.0402399999999 L 465.45919999999984 478.86385999999993 L 446.05771999999985 489.4464899999999 L 428.94913999999983 479.2166199999999 L 409.54765999999984 478.86385999999993 L 390.32254999999986 489.4464899999999 L 371.6265799999999 478.6874899999999 L 352.7542299999999 479.0402399999999 L 334.23462999999987 489.79923999999994 L 315.71502999999984 480.09849999999994 L 296.13716999999986 480.27487999999994 L 278.4994599999999 490.15199999999993 L 261.0381299999999 480.27487999999994 L 240.75475999999992 480.27487999999994 L 221.52964999999992 490.85750999999993 L 204.42106999999993 480.27487999999994 L 185.01958999999994 480.45125999999993 z M 156.64512 506.85173 C 157.00617 491.79785999999996 172.51684999999998 473.92632 187.57504999999998 473.92632 C 485.89919999999995 473.92632 187.57504999999998 473.92632 485.89919999999995 473.92632 C 500.07974999999993 473.92632 512.9833 492.67193 512.83817 506.85173 C 512.68606 521.71321 498.76598 540.77487 483.90372 540.77487 C 185.57957000000005 540.77487 483.90372 540.77487 185.57957000000005 540.77487 C 170.71731000000005 540.77487 156.28876000000005 521.70972 156.64512000000005 506.85173 z" stroke-linecap="round" />
</g>
<g transform="matrix(1 0 0 1 120.74 448.24)" id="9Aw6vuq7CJ55Tgo4Gc0sc"  >
<path style="stroke: none; stroke-width: 1.29; stroke-dasharray: none; stroke-linecap: butt; stroke-dashoffset: 0; stroke-linejoin: miter; stroke-miterlimit: 4; fill: rgb(0,0,0); fill-rule: evenodd; opacity: 1;" vector-effect="non-scaling-stroke"  transform=" translate(-194.1, -506.64)" d="M 207.86633 521.90066 C 199.44329679936402 529.4988630779369 186.45647170493265 528.8339729702444 178.85346 520.41528 C 171.25045260123176 511.99658543541824 171.90793002324833 499.00938533333874 180.32228 491.40157000000005 C 188.7366278635326 483.7937561224482 201.72419800533078 484.4438118828609 209.33682000000002 492.85381000000007 C 216.9494389997596 501.26381519674004 216.3067957795068 514.2517587591117 207.90114000000003 521.86918" stroke-linecap="round" />
</g>
<g transform="matrix(1 0 0 1 177.36 448.24)" id="nn9Q1j7w9mb_hbYD1KoGz"  >
<path style="stroke: none; stroke-width: 1.29; stroke-dasharray: none; stroke-linecap: butt; stroke-dashoffset: 0; stroke-linejoin: miter; stroke-miterlimit: 4; fill: rgb(0,0,0); fill-rule: evenodd; opacity: 1;" vector-effect="non-scaling-stroke"  transform=" translate(-250.72, -506.64)" d="M 264.48338 521.90066 C 256.060346799364 529.4988630779369 243.07352170493266 528.8339729702444 235.47051000000002 520.41528 C 227.86750260123176 511.99658543541824 228.52498002324833 499.00938533333874 236.93933 491.40157000000005 C 245.3536778635326 483.7937561224482 258.3412480053307 484.4438118828609 265.95387 492.85381000000007 C 273.56649156507297 501.26381250665645 272.9238528289416 514.251755909516 264.5182 521.86918" stroke-linecap="round" />
</g>
<g transform="matrix(1 0 0 1 233.62 448.24)" id="yTjCQGJwsuyNJjsCvIooR"  >
<path style="stroke: none; stroke-width: 1.29; stroke-dasharray: none; stroke-linecap: butt; stroke-dashoffset: 0; stroke-linejoin: miter; stroke-miterlimit: 4; fill: rgb(0,0,0); fill-rule: evenodd; opacity: 1;" vector-effect="non-scaling-stroke"  transform=" translate(-306.98, -506.64)" d="M 320.74769 521.90066 C 312.324656799364 529.4988630779369 299.3378317049326 528.8339729702444 291.73481999999996 520.41528 C 284.13181260123173 511.99658543541824 284.78929002324827 499.00938533333874 293.20363999999995 491.40157000000005 C 301.61798920846223 483.7937493886669 314.6055670500868 484.4438053104276 322.21818999999994 492.85381000000007 C 329.83080899975954 501.26381519674004 329.18816577950673 514.2517587591117 320.78250999999995 521.86918" stroke-linecap="round" />
</g>
<g transform="matrix(1 0 0 1 290.24 448.24)" id="__ZrlWT0_EeDEDRq3Ef19"  >
<path style="stroke: none; stroke-width: 1.29; stroke-dasharray: none; stroke-linecap: butt; stroke-dashoffset: 0; stroke-linejoin: miter; stroke-miterlimit: 4; fill: rgb(0,0,0); fill-rule: evenodd; opacity: 1;" vector-effect="non-scaling-stroke"  transform=" translate(-363.6, -506.64)" d="M 377.36473 521.90066 C 368.941696799364 529.4988630779369 355.95487170493266 528.8339729702444 348.35186 520.41528 C 340.74885260123176 511.99658543541824 341.4063300232483 499.00938533333874 349.82068 491.40157000000005 C 358.2350278635326 483.7937561224482 371.2225980053307 484.4438118828609 378.83522 492.85381000000007 C 386.4478389997596 501.26381519674004 385.8051957795068 514.2517587591117 377.39954 521.86918" stroke-linecap="round" />
</g>
<g transform="matrix(1 0 0 1 345.09 448.24)" id="vWv_-aP4rPagNW1ANgb0C"  >
<path style="stroke: none; stroke-width: 1.29; stroke-dasharray: none; stroke-linecap: butt; stroke-dashoffset: 0; stroke-linejoin: miter; stroke-miterlimit: 4; fill: rgb(0,0,0); fill-rule: evenodd; opacity: 1;" vector-effect="non-scaling-stroke"  transform=" translate(-418.45, -506.64)" d="M 432.21803 521.90066 C 423.794996799364 529.4988630779369 410.80817170493265 528.8339729702444 403.20516 520.41528 C 395.60215260123175 511.99658543541824 396.2596300232483 499.00938533333874 404.67398 491.40157000000005 C 413.0883278635326 483.7937561224482 426.0758980053307 484.4438118828609 433.68852 492.85381000000007 C 441.3011389997596 501.26381519674004 440.6584957795068 514.2517587591117 432.25284 521.86918" stroke-linecap="round" />
</g>
<g transform="matrix(1 0 0 1 401.71 448.24)" id="LejDMyRAjvktquKeYN36z"  >
<path style="stroke: none; stroke-width: 1.29; stroke-dasharray: none; stroke-linecap: butt; stroke-dashoffset: 0; stroke-linejoin: miter; stroke-miterlimit: 4; fill: rgb(0,0,0); fill-rule: evenodd; opacity: 1;" vector-effect="non-scaling-stroke"  transform=" translate(-475.07, -506.64)" d="M 488.83506 521.90066 C 480.41202814891545 529.4988563427706 467.4252107539365 528.8339664000985 459.8222 520.41528 C 452.21919004053774 511.99658812411036 452.8766629780645 499.00938818521564 461.29101 491.40157000000005 C 469.7053592084623 483.7937493886669 482.69293705008687 484.4438053104276 490.30556 492.85381000000007 C 497.9181789997596 501.26381519674004 497.2755357795068 514.2517587591117 488.86988 521.86918" stroke-linecap="round" />
</g>
<g transform="matrix(1 0 0 1 441.62 71.1)" id="-mXMkLIFJvEByjidC0GPB"  >
<path style="stroke: none; stroke-width: 0.35; stroke-dasharray: none; stroke-linecap: butt; stroke-dashoffset: 0; stroke-linejoin: miter; stroke-miterlimit: 4; fill: rgb(0,0,0); fill-rule: evenodd; opacity: 1;" vector-effect="non-scaling-stroke"  transform=" translate(-514.98, -129.5)" d="M 518.72012 133.64234 C 516.4320048890163 135.70638336497797 512.9041428957521 135.525763140612 510.83878999999996 133.23882999999998 C 508.77343738219287 130.951896318776 508.9520388346693 127.42393124664602 511.23778999999996 125.35726999999997 C 513.523544574056 123.2906096643568 517.0516137204635 123.46719687084894 519.1195799999999 125.75176999999996 C 521.1875490762475 128.03634509972693 521.0129760759316 131.56451915087752 518.7295799999999 133.63378999999998" stroke-linecap="round" />
</g>
<g transform="matrix(1 0 0 1 415.78 164.69)" style="" id="lnHXmC79hW6vG3lsAfJOv"  >
		<text xml:space="preserve" font-family="Arial" font-size="34.6667" font-style="normal" font-weight="bold" line-height="1.16" style="stroke: none; stroke-width: 1; stroke-dasharray: none; stroke-linecap: butt; stroke-dashoffset: 0; stroke-linejoin: miter; stroke-miterlimit: 4; fill: rgb(0,0,0); fill-rule: nonzero; opacity: 1; white-space: pre;" ><tspan x="-333.5" y="10.89" >Zigbee Curtain Module</tspan></text>
</g>
<g transform="matrix(1 0 0 1 439.12 392.34)" style="" id="_ogKjusSVuCEeMlW8CUaX"  >
		<text xml:space="preserve" font-family="Arial" font-size="45.3333" font-style="normal" font-weight="bold" line-height="1.16" style="stroke: none; stroke-width: 1; stroke-dasharray: none; stroke-linecap: butt; stroke-dashoffset: 0; stroke-linejoin: miter; stroke-miterlimit: 4; fill: rgb(0,0,0); fill-rule: nonzero; opacity: 1; white-space: pre;" ><tspan x="-333.5" y="14.24" style="white-space: pre; ">N  L </tspan></text>
</g>
<g transform="matrix(1 0 0 1 233.01 390.48)" id="37B5G4sBd_i8bXCf2ndQl"  >
<path style="stroke: rgb(0,0,0); stroke-width: 1; stroke-dasharray: none; stroke-linecap: butt; stroke-dashoffset: 0; stroke-linejoin: miter; stroke-miterlimit: 4; fill: rgb(0,0,0); fill-rule: nonzero; opacity: 1;" vector-effect="non-scaling-stroke"  transform=" translate(-306.37, -448.88)" d="M 306.89618 433.53494 L 288.55296000000004 464.22456 L 324.18113000000005 464.22456 z" stroke-linecap="round" />
</g>
<g transform="matrix(1 0 0 1 401.01 389.98)" id="bCakBTPq4-fqkIGsdnCd9"  >
<path style="stroke: rgb(0,0,0); stroke-width: 1; stroke-dasharray: none; stroke-linecap: butt; stroke-dashoffset: 0; stroke-linejoin: miter; stroke-miterlimit: 4; fill: rgb(0,0,0); fill-rule: nonzero; opacity: 1;" vector-effect="non-scaling-stroke"  transform=" translate(-474.37, -448.38)" d="M 474.89618 463.72849 L 456.55296000000004 433.03887000000003 L 492.18113000000005 433.03887000000003 z" stroke-linecap="round" />
</g>
<g transform="matrix(1 0 0 1 345.01 389.98)" id="zYRhRe9Oz_S3wVKVOnm8h"  >
<path style="stroke: rgb(0,0,0); stroke-width: 1; stroke-dasharray: none; stroke-linecap: butt; stroke-dashoffset: 0; stroke-linejoin: miter; stroke-miterlimit: 4; fill: rgb(0,0,0); fill-rule: nonzero; opacity: 1;" vector-effect="non-scaling-stroke"  transform=" translate(-418.37, -448.38)" d="M 418.89618 463.72849 L 400.55296000000004 433.03887000000003 L 436.18113000000005 433.03887000000003 z" stroke-linecap="round" />
</g>
<g transform="matrix(1 0 0 1 291.01 390.48)" id="pBGkbh05AkQ49adGGLONg"  >
<path style="stroke: rgb(0,0,0); stroke-width: 1; stroke-dasharray: none; stroke-linecap: butt; stroke-dashoffset: 0; stroke-linejoin: miter; stroke-miterlimit: 4; fill: rgb(0,0,0); fill-rule: nonzero; opacity: 1;" vector-effect="non-scaling-stroke"  transform=" translate(-364.37, -448.88)" d="M 364.89618 433.53494 L 346.55296000000004 464.22456 L 382.18113000000005 464.22456 z" stroke-linecap="round" />
</g>
</svg>